<?xml version="1.0" encoding="UTF-8"?>
<svg xmlns="http://www.w3.org/2000/svg" version="1.1" viewBox="0 0 146.2 104.1">
  <defs>
    <style>
      .cls-1, .cls-2 {
        fill: #6d6e71;
      }

      .cls-2, .cls-3 {
        fill-rule: evenodd;
      }

      .cls-3 {
        fill: #f04e30;
      }
    </style>
  </defs>
  <!-- Generator: Adobe Illustrator 28.7.3, SVG Export Plug-In . SVG Version: 1.2.0 Build 164)  -->
  <g>
    <g id="Layer_2">
      <g id="Layer_1-2">
        <path class="cls-2" d="M0,95.6c.2-.9.7-1.6,1.5-2.1.7-.5,1.6-.7,2.5-.7h3.7v1.8h-3.1c-.6,0-.9.3-1,.8,0,.3.2.6.6.8.1,0,.8.2,1.9.5.7.2,1.3.5,1.8,1,.5.6.8,1.3.8,2.1s0,.3,0,.4c-.2,1.7-.9,2.7-2.3,3.2-.7.2-1.6.4-2.7.4H.6v-1.9h3.1c.6,0,1,0,1.2-.1.4-.2.6-.5.6-.9s-.3-.8-.8-1c-.2,0-.7-.2-1.4-.3-.7-.1-1.2-.2-1.4-.4C.6,98.6,0,97.7,0,96.3s0-.5,0-.7h0Z"/>
        <path class="cls-2" d="M18.4,98.2l-1,3.6c-.4,1.5-1.2,2.3-2.4,2.3-1,0-1.7-.3-2.1-1-.2-.3-.3-.7-.5-1.1l-2.7-9.1h3.9l2.2,8,1.5-5.5-.8-2.4h4l2.2,8,2-8h2.1l-2.5,8.9c-.4,1.3-1.2,2.1-2.4,2.2-.1,0-.2,0-.4,0-.6,0-1.2-.2-1.7-.6-.4-.4-.7-.9-.9-1.5l-.8-3.7h0Z"/>
        <path class="cls-2" d="M28.6,103.9v-11h3.9v11h-3.9ZM30.6,86.6c.7,0,1.2.2,1.6.6.4.4.5.9.5,1.4s-.2,1.1-.5,1.4c-.4.4-.8.6-1.4.6-.9,0-1.5-.3-1.9-1.1-.2-.3-.2-.6-.2-1,0-.5.2-1,.5-1.4.4-.4.9-.6,1.5-.6h0Z"/>
        <path class="cls-2" d="M35,95.6c.2-.9.7-1.6,1.5-2.1.7-.5,1.6-.7,2.5-.7h3.7v1.8h-3c-.6,0-.9.3-1,.8,0,.3.2.6.6.8.1,0,.8.2,1.9.5.7.2,1.3.5,1.8,1,.5.6.8,1.3.8,2.1s0,.3,0,.4c-.2,1.7-1,2.7-2.3,3.2-.7.2-1.6.4-2.7.4h-3.3v-1.9h3.1c.6,0,1,0,1.2-.1.4-.2.6-.5.6-.9s-.3-.8-.8-1c-.2,0-.7-.2-1.4-.3-.7-.1-1.2-.2-1.4-.4-1.2-.6-1.9-1.6-1.9-2.9s0-.5,0-.7h0Z"/>
        <path class="cls-2" d="M45.2,95.6c.2-.9.7-1.6,1.5-2.1.7-.5,1.6-.7,2.5-.7h3.7v1.8h-3c-.6,0-.9.3-1,.8,0,.3.2.6.6.8.1,0,.8.2,1.9.5.7.2,1.3.5,1.8,1,.5.6.8,1.3.8,2.1s0,.3,0,.4c-.2,1.7-1,2.7-2.3,3.2-.7.2-1.6.4-2.7.4h-3.3v-1.9h3.1c.6,0,1,0,1.2-.1.4-.2.6-.5.6-.9s-.3-.8-.8-1c-.2,0-.7-.2-1.4-.3-.7-.1-1.2-.2-1.4-.4-1.2-.6-1.9-1.6-1.9-2.9s0-.5,0-.7h0Z"/>
        <rect class="cls-1" x="55.3" y="95.7" width="8.6" height="2.5"/>
        <path class="cls-2" d="M72.6,98.6c0-1.8-.4-3-1.3-3.6-.3-.2-.7-.4-1.1-.4h-.6c0,0,0,7.5,0,7.5,0,0,.2,0,.3,0,.1,0,.2,0,.3,0,1.6,0,2.4-1.2,2.4-3.6ZM65.6,86.2h4v6.8h1.4c2.4,0,4.1,1,5.1,2.9.4.9.7,1.9.7,2.9,0,1.5-.5,2.8-1.5,3.7-1,.9-2.3,1.4-3.9,1.4h-5.8v-17.7h0Z"/>
        <path class="cls-2" d="M78.1,95.5c0-1,.3-1.8.9-2.2.4-.3,1-.5,1.8-.5h5.4v1.8h-3c-.7,0-1.1.3-1.1.9v1.9h3.7v1.8h-3.7v2c0,.6.2.8.8.8h3.5v1.8h-5.2c-.9,0-1.5-.1-2-.4-.7-.4-1-1.1-1-2.1v-5.9h0Z"/>
        <path class="cls-2" d="M91.8,86.1v14c0,.8,0,1.3.3,1.6.1.2.4.3.7.3h1.7v1.9h-2.4c-1.6,0-2.6-.3-3.2-.9-.7-.7-1-1.6-1-2.8v-14.1h3.9Z"/>
        <polygon class="cls-2" points="105.2 103.9 101.2 103.9 101.2 98.5 99 98.5 99 103.9 95.2 103.9 95.2 92.8 99 92.8 99 96.7 101.2 96.7 101.2 92.8 105.2 92.8 105.2 103.9"/>
        <path class="cls-2" d="M112.1,94.3c-.8,0-1.3.6-1.4,1.9,0,.5,0,1.1,0,2v1.2c0,1.9.5,2.9,1.4,2.9s1.2-.5,1.5-1.6c0-.4.1-1.2.2-2.4v-.6c0-2.3-.5-3.5-1.5-3.5h0ZM117.3,96.2c.2.7.3,1.3.3,2,0,1.7-.6,3.1-1.7,4.2-1.1,1.1-2.5,1.6-4.1,1.6s-3.3-.7-4.4-2.1c-.8-1-1.1-2.1-1.1-3.3s.7-3.2,2-4.4c1.1-1,2.4-1.5,3.9-1.5s1.5.1,2.2.4c1.4.6,2.3,1.6,2.9,3h0Z"/>
        <polygon class="cls-2" points="121.6 103.9 121.6 94.9 118.4 94.9 118.4 92.9 128.5 92.9 128.5 94.9 125.5 94.9 125.5 103.9 121.6 103.9"/>
        <path class="cls-2" d="M129.8,95.5c0-1,.3-1.8.9-2.2.4-.3,1-.5,1.8-.5h5.4v1.8h-2.9c-.7,0-1.1.3-1.1.9v1.9h3.7v1.8h-3.7v2c0,.6.2.8.8.8h3.5v1.8h-5.2c-.9,0-1.5-.1-2-.4-.7-.4-1-1.1-1-2.1v-5.9Z"/>
        <path class="cls-2" d="M143.5,86.1v14c0,.8,0,1.3.3,1.6.1.2.4.3.7.3h1.7v1.9h-2.4c-1.6,0-2.6-.3-3.2-.9-.7-.7-1-1.6-1-2.8v-14.1h3.9Z"/>
        <path class="cls-3" d="M33.4,79.6h6.7c18,0,32.5-15.1,32.5-33.6h-25.9c0-12.3,3.7-24,10.2-33.7h-23.4v67.3Z"/>
        <path class="cls-3" d="M111.8,12.3h-6.7c-17.9,0-32.5,15.1-32.5,33.6h25.9c0,12.3-3.7,24-10.2,33.7h23.4V12.3Z"/>
        <path class="cls-1" d="M117.8,12.7c-3.4,0-6.3-2.8-6.4-6.2,0-1.7.6-3.3,1.8-4.5,1.2-1.2,2.8-1.9,4.5-1.9h.1c3.4,0,6.3,2.8,6.4,6.2,0,1.7-.6,3.3-1.8,4.5-1.2,1.2-2.8,1.9-4.5,1.9h-.1ZM117.8.9h0c-1.5,0-2.8.6-3.8,1.7-1,1-1.6,2.4-1.5,3.9,0,3,2.5,5.4,5.5,5.4h0c1.5,0,2.8-.6,3.8-1.7s1.6-2.4,1.5-3.9c0-3-2.5-5.4-5.5-5.4h0Z"/>
        <path class="cls-1" d="M115.3,3.1h2.9c.5,0,.9,0,1.2.2.6.3.9.8.9,1.5s0,.7-.2.9c-.2.2-.4.4-.7.6.2,0,.4.2.6.4.1.2.2.4.2.8v.9c0,.2,0,.4,0,.6,0,.2.1.3.3.4h0c0,.1-1.1.1-1.1.1,0,0,0-.1,0-.2,0,0,0-.2,0-.5v-1.1c0-.4-.2-.7-.5-.8-.2,0-.4-.1-.8-.1h-1.9v2.7h-.9V3.1h0ZM118.2,6c.4,0,.7,0,.9-.2s.3-.5.3-.9-.2-.8-.5-.9c-.2,0-.4-.1-.7-.1h-2.1v2.2h1.9,0Z"/>
      </g>
    </g>
  </g>
</svg>