<svg xmlns="http://www.w3.org/2000/svg" xmlns:xlink="http://www.w3.org/1999/xlink" version="1.1" x="0px" y="0px" viewBox="0 0 100 125" enable-background="new 0 0 100 100" xml:space="preserve"><g><path d="M55.083,53.987V17.952C55.083,11.913,50.17,7,44.132,7c-6.04,0-10.953,4.913-10.953,10.952v36.037   C26.9,57.807,23.047,64.601,23.047,72c0,11.625,9.458,21.083,21.084,21.083c11.625,0,21.083-9.458,21.083-21.083   C65.215,64.6,61.362,57.806,55.083,53.987z M44.131,89.083c-9.42,0-17.084-7.663-17.084-17.083c0-6.326,3.476-12.106,9.072-15.085   l1.06-0.564V45.47h2.546c1.104,0,2-0.896,2-2s-0.896-2-2-2h-2.546v-6.636h2.358c1.104,0,2-0.896,2-2s-0.896-2-2-2h-2.358v-6.636   h2.358c1.104,0,2-0.896,2-2s-0.896-2-2-2h-2.358v-2.247c0-3.833,3.119-6.952,6.953-6.952c3.833,0,6.951,3.119,6.951,6.952v38.399   l1.061,0.564c5.596,2.979,9.071,8.759,9.071,15.085C61.215,81.42,53.551,89.083,44.131,89.083z"/><path d="M47.864,59.895V49.877c0-2.061-1.671-3.732-3.732-3.732c-2.063,0-3.733,1.672-3.733,3.732v10.018   c-5.341,1.604-9.235,6.554-9.235,12.417c0,7.161,5.807,12.967,12.968,12.967s12.967-5.806,12.967-12.967   C57.099,66.448,53.205,61.498,47.864,59.895z"/><path d="M83.511,35.51l-5.382-3.958l5.382-3.958c1.295-0.954,1.572-2.783,0.621-4.076c-0.917-1.248-2.824-1.543-4.077-0.623   l-3.932,2.892v-4.881c0-1.607-1.309-2.916-2.917-2.916c-1.607,0-2.916,1.308-2.916,2.916v4.881l-3.931-2.892   c-1.253-0.92-3.163-0.624-4.076,0.621c-0.463,0.627-0.652,1.396-0.535,2.167c0.117,0.77,0.527,1.448,1.154,1.911l5.382,3.957   l-5.382,3.958c-0.627,0.462-1.037,1.14-1.154,1.91c-0.117,0.771,0.072,1.541,0.533,2.166c0.917,1.249,2.829,1.542,4.078,0.622   l3.931-2.891v4.882c0,1.607,1.309,2.916,2.916,2.916c1.608,0,2.917-1.308,2.917-2.916v-4.882l3.93,2.89   c1.249,0.922,3.162,0.628,4.078-0.619C85.083,38.293,84.806,36.464,83.511,35.51z"/></g><text x="0" y="115" fill="#000000" font-size="5px" font-weight="bold" font-family="'Helvetica Neue', Helvetica, Arial-Unicode, Arial, Sans-serif">Created by mungang kim</text><text x="0" y="120" fill="#000000" font-size="5px" font-weight="bold" font-family="'Helvetica Neue', Helvetica, Arial-Unicode, Arial, Sans-serif">from the Noun Project</text></svg>